<mxfile host="www.draw.io" modified="2020-03-04T03:10:03.818Z" agent="Mozilla/5.0 (Macintosh; Intel Mac OS X 10_15_3) AppleWebKit/537.36 (KHTML, like Gecko) Chrome/80.0.3987.122 Safari/537.36" etag="msdRA3NeZRKr8nEt0YHs" version="12.7.9" type="github">
  <diagram id="C5RBs43oDa-KdzZeNtuy" name="Page-1">
    <mxGraphModel dx="1774" dy="1056" grid="1" gridSize="10" guides="1" tooltips="1" connect="1" arrows="1" fold="1" page="1" pageScale="1" pageWidth="1169" pageHeight="1654" math="0" shadow="0">
      <root>
        <mxCell id="WIyWlLk6GJQsqaUBKTNV-0" />
        <mxCell id="WIyWlLk6GJQsqaUBKTNV-1" parent="WIyWlLk6GJQsqaUBKTNV-0" />
        <mxCell id="WIyWlLk6GJQsqaUBKTNV-2" value="" style="rounded=0;html=1;jettySize=auto;orthogonalLoop=1;fontSize=11;endArrow=block;endFill=0;endSize=8;strokeWidth=1;shadow=0;labelBackgroundColor=none;edgeStyle=orthogonalEdgeStyle;" parent="WIyWlLk6GJQsqaUBKTNV-1" edge="1">
          <mxGeometry relative="1" as="geometry">
            <mxPoint x="220" y="120" as="sourcePoint" />
            <mxPoint x="220" y="200" as="targetPoint" />
          </mxGeometry>
        </mxCell>
        <mxCell id="fNBgP7wJLayAHlmzlizY-0" value="拿到试卷" style="ellipse;whiteSpace=wrap;html=1;" parent="WIyWlLk6GJQsqaUBKTNV-1" vertex="1">
          <mxGeometry x="160" y="40" width="120" height="80" as="geometry" />
        </mxCell>
        <mxCell id="fNBgP7wJLayAHlmzlizY-6" value="" style="edgeStyle=orthogonalEdgeStyle;rounded=0;orthogonalLoop=1;jettySize=auto;html=1;" parent="WIyWlLk6GJQsqaUBKTNV-1" source="fNBgP7wJLayAHlmzlizY-3" edge="1">
          <mxGeometry relative="1" as="geometry">
            <mxPoint x="220" y="320" as="targetPoint" />
          </mxGeometry>
        </mxCell>
        <mxCell id="fNBgP7wJLayAHlmzlizY-166" style="edgeStyle=orthogonalEdgeStyle;rounded=0;orthogonalLoop=1;jettySize=auto;html=1;entryX=-0.005;entryY=0.399;entryDx=0;entryDy=0;entryPerimeter=0;dashed=1;dashPattern=1 1;fontFamily=Lucida Console;fontSize=60;fontColor=#333333;" parent="WIyWlLk6GJQsqaUBKTNV-1" source="fNBgP7wJLayAHlmzlizY-3" target="fNBgP7wJLayAHlmzlizY-158" edge="1">
          <mxGeometry relative="1" as="geometry" />
        </mxCell>
        <mxCell id="fNBgP7wJLayAHlmzlizY-3" value="抓住关键词" style="rounded=0;whiteSpace=wrap;html=1;" parent="WIyWlLk6GJQsqaUBKTNV-1" vertex="1">
          <mxGeometry x="160" y="200" width="120" height="40" as="geometry" />
        </mxCell>
        <mxCell id="fNBgP7wJLayAHlmzlizY-9" value="" style="edgeStyle=orthogonalEdgeStyle;rounded=0;orthogonalLoop=1;jettySize=auto;html=1;" parent="WIyWlLk6GJQsqaUBKTNV-1" source="fNBgP7wJLayAHlmzlizY-7" edge="1">
          <mxGeometry relative="1" as="geometry">
            <mxPoint x="374.9999999999999" y="355" as="targetPoint" />
          </mxGeometry>
        </mxCell>
        <mxCell id="fNBgP7wJLayAHlmzlizY-14" value="是" style="text;html=1;align=center;verticalAlign=middle;resizable=0;points=[];labelBackgroundColor=#ffffff;" parent="fNBgP7wJLayAHlmzlizY-9" vertex="1" connectable="0">
          <mxGeometry x="-0.175" relative="1" as="geometry">
            <mxPoint as="offset" />
          </mxGeometry>
        </mxCell>
        <mxCell id="fNBgP7wJLayAHlmzlizY-12" value="" style="edgeStyle=orthogonalEdgeStyle;rounded=0;orthogonalLoop=1;jettySize=auto;html=1;entryX=0.5;entryY=0;entryDx=0;entryDy=0;" parent="WIyWlLk6GJQsqaUBKTNV-1" source="fNBgP7wJLayAHlmzlizY-7" target="fNBgP7wJLayAHlmzlizY-26" edge="1">
          <mxGeometry relative="1" as="geometry">
            <mxPoint x="220" y="470" as="targetPoint" />
          </mxGeometry>
        </mxCell>
        <mxCell id="fNBgP7wJLayAHlmzlizY-13" value="否" style="text;html=1;align=center;verticalAlign=middle;resizable=0;points=[];labelBackgroundColor=#ffffff;" parent="fNBgP7wJLayAHlmzlizY-12" vertex="1" connectable="0">
          <mxGeometry x="0.125" y="2" relative="1" as="geometry">
            <mxPoint as="offset" />
          </mxGeometry>
        </mxCell>
        <mxCell id="fNBgP7wJLayAHlmzlizY-7" value="题目观点是否是有逻辑联系的2个半句组成" style="rhombus;whiteSpace=wrap;html=1;align=center;verticalAlign=middle;" parent="WIyWlLk6GJQsqaUBKTNV-1" vertex="1">
          <mxGeometry x="145" y="320" width="150" height="70" as="geometry" />
        </mxCell>
        <mxCell id="fNBgP7wJLayAHlmzlizY-93" value="" style="edgeStyle=orthogonalEdgeStyle;rounded=0;orthogonalLoop=1;jettySize=auto;html=1;fontSize=12;entryX=0.5;entryY=0;entryDx=0;entryDy=0;" parent="WIyWlLk6GJQsqaUBKTNV-1" source="fNBgP7wJLayAHlmzlizY-15" target="fNBgP7wJLayAHlmzlizY-94" edge="1">
          <mxGeometry relative="1" as="geometry">
            <mxPoint x="440" y="450" as="targetPoint" />
          </mxGeometry>
        </mxCell>
        <mxCell id="fNBgP7wJLayAHlmzlizY-160" style="edgeStyle=orthogonalEdgeStyle;rounded=0;orthogonalLoop=1;jettySize=auto;html=1;entryX=0;entryY=0.5;entryDx=0;entryDy=0;entryPerimeter=0;dashed=1;dashPattern=1 1;fontFamily=Lucida Console;fontSize=60;fontColor=#333333;" parent="WIyWlLk6GJQsqaUBKTNV-1" source="fNBgP7wJLayAHlmzlizY-15" target="fNBgP7wJLayAHlmzlizY-157" edge="1">
          <mxGeometry relative="1" as="geometry" />
        </mxCell>
        <mxCell id="fNBgP7wJLayAHlmzlizY-15" value="厘清句子和句子的逻辑关系" style="rounded=0;whiteSpace=wrap;html=1;align=center;" parent="WIyWlLk6GJQsqaUBKTNV-1" vertex="1">
          <mxGeometry x="380" y="330" width="120" height="55" as="geometry" />
        </mxCell>
        <mxCell id="fNBgP7wJLayAHlmzlizY-16" value="" style="strokeWidth=2;html=1;shape=mxgraph.flowchart.annotation_2;align=left;labelPosition=right;pointerEvents=1;" parent="WIyWlLk6GJQsqaUBKTNV-1" vertex="1">
          <mxGeometry x="70" y="200" width="50" height="400" as="geometry" />
        </mxCell>
        <mxCell id="fNBgP7wJLayAHlmzlizY-126" style="edgeStyle=orthogonalEdgeStyle;rounded=0;orthogonalLoop=1;jettySize=auto;html=1;fontSize=12;fontColor=#EA6B66;shape=flexArrow;" parent="WIyWlLk6GJQsqaUBKTNV-1" edge="1">
          <mxGeometry relative="1" as="geometry">
            <mxPoint x="49.29" y="820" as="targetPoint" />
            <mxPoint x="49.29" y="430" as="sourcePoint" />
            <Array as="points">
              <mxPoint x="49.29" y="460" />
              <mxPoint x="49.29" y="460" />
            </Array>
          </mxGeometry>
        </mxCell>
        <mxCell id="fNBgP7wJLayAHlmzlizY-19" value="审题" style="text;html=1;strokeColor=none;fillColor=none;align=center;verticalAlign=middle;whiteSpace=wrap;rounded=0;fontStyle=1;fontSize=24;" parent="WIyWlLk6GJQsqaUBKTNV-1" vertex="1">
          <mxGeometry x="30" y="380" width="40" height="20" as="geometry" />
        </mxCell>
        <mxCell id="fNBgP7wJLayAHlmzlizY-24" value="" style="strokeWidth=2;html=1;shape=mxgraph.flowchart.annotation_2;align=left;labelPosition=right;pointerEvents=1;" parent="WIyWlLk6GJQsqaUBKTNV-1" vertex="1">
          <mxGeometry x="70" y="620" width="50" height="480" as="geometry" />
        </mxCell>
        <mxCell id="fNBgP7wJLayAHlmzlizY-130" style="edgeStyle=orthogonalEdgeStyle;shape=flexArrow;rounded=0;orthogonalLoop=1;jettySize=auto;html=1;fontSize=12;fontColor=#EA6B66;" parent="WIyWlLk6GJQsqaUBKTNV-1" edge="1">
          <mxGeometry relative="1" as="geometry">
            <mxPoint x="50" y="1160" as="targetPoint" />
            <mxPoint x="50" y="910" as="sourcePoint" />
          </mxGeometry>
        </mxCell>
        <mxCell id="fNBgP7wJLayAHlmzlizY-25" value="论证" style="text;html=1;strokeColor=none;fillColor=none;align=center;verticalAlign=middle;whiteSpace=wrap;rounded=0;fontStyle=1;fontSize=24;" parent="WIyWlLk6GJQsqaUBKTNV-1" vertex="1">
          <mxGeometry x="30" y="855" width="40" height="20" as="geometry" />
        </mxCell>
        <mxCell id="fNBgP7wJLayAHlmzlizY-28" value="" style="edgeStyle=orthogonalEdgeStyle;rounded=0;orthogonalLoop=1;jettySize=auto;html=1;fontSize=24;" parent="WIyWlLk6GJQsqaUBKTNV-1" source="fNBgP7wJLayAHlmzlizY-26" target="fNBgP7wJLayAHlmzlizY-35" edge="1">
          <mxGeometry relative="1" as="geometry">
            <mxPoint x="330" y="790" as="targetPoint" />
            <Array as="points">
              <mxPoint x="220" y="710" />
              <mxPoint x="410" y="710" />
            </Array>
          </mxGeometry>
        </mxCell>
        <mxCell id="fNBgP7wJLayAHlmzlizY-32" value="&lt;font style=&quot;font-size: 12px&quot;&gt;假设论证&lt;/font&gt;" style="text;html=1;align=center;verticalAlign=middle;resizable=0;points=[];labelBackgroundColor=#ffffff;fontSize=24;fontColor=#FFB570;" parent="fNBgP7wJLayAHlmzlizY-28" vertex="1" connectable="0">
          <mxGeometry x="0.5826" y="-2" relative="1" as="geometry">
            <mxPoint x="2" y="6.899999999999999" as="offset" />
          </mxGeometry>
        </mxCell>
        <mxCell id="fNBgP7wJLayAHlmzlizY-29" style="edgeStyle=orthogonalEdgeStyle;rounded=0;orthogonalLoop=1;jettySize=auto;html=1;fontSize=24;" parent="WIyWlLk6GJQsqaUBKTNV-1" source="fNBgP7wJLayAHlmzlizY-26" target="fNBgP7wJLayAHlmzlizY-35" edge="1">
          <mxGeometry relative="1" as="geometry">
            <mxPoint x="220" y="790" as="targetPoint" />
            <Array as="points">
              <mxPoint x="220" y="770" />
              <mxPoint x="220" y="770" />
            </Array>
          </mxGeometry>
        </mxCell>
        <mxCell id="fNBgP7wJLayAHlmzlizY-31" value="&lt;font style=&quot;font-size: 12px&quot;&gt;原因论证&lt;/font&gt;" style="text;html=1;align=center;verticalAlign=middle;resizable=0;points=[];labelBackgroundColor=#ffffff;fontSize=24;fontColor=#7EA6E0;" parent="fNBgP7wJLayAHlmzlizY-29" vertex="1" connectable="0">
          <mxGeometry x="0.0333" y="1" relative="1" as="geometry">
            <mxPoint x="-1" y="3.33" as="offset" />
          </mxGeometry>
        </mxCell>
        <mxCell id="fNBgP7wJLayAHlmzlizY-30" style="edgeStyle=orthogonalEdgeStyle;rounded=0;orthogonalLoop=1;jettySize=auto;html=1;fontSize=24;" parent="WIyWlLk6GJQsqaUBKTNV-1" source="fNBgP7wJLayAHlmzlizY-26" target="fNBgP7wJLayAHlmzlizY-35" edge="1">
          <mxGeometry relative="1" as="geometry">
            <mxPoint x="440" y="790" as="targetPoint" />
            <Array as="points">
              <mxPoint x="220" y="710" />
              <mxPoint x="600" y="710" />
            </Array>
          </mxGeometry>
        </mxCell>
        <mxCell id="fNBgP7wJLayAHlmzlizY-33" value="&lt;font style=&quot;font-size: 12px&quot;&gt;对比论证&lt;/font&gt;" style="text;html=1;align=center;verticalAlign=middle;resizable=0;points=[];labelBackgroundColor=#ffffff;fontSize=24;fontColor=#EA6B66;" parent="fNBgP7wJLayAHlmzlizY-30" vertex="1" connectable="0">
          <mxGeometry x="0.6591" y="1" relative="1" as="geometry">
            <mxPoint x="-1" y="28.97" as="offset" />
          </mxGeometry>
        </mxCell>
        <mxCell id="fNBgP7wJLayAHlmzlizY-26" value="&lt;font style=&quot;font-size: 12px&quot;&gt;选择论证思路&lt;/font&gt;" style="rhombus;whiteSpace=wrap;html=1;fontSize=24;align=center;" parent="WIyWlLk6GJQsqaUBKTNV-1" vertex="1">
          <mxGeometry x="150" y="590" width="140" height="80" as="geometry" />
        </mxCell>
        <mxCell id="fNBgP7wJLayAHlmzlizY-38" value="" style="edgeStyle=orthogonalEdgeStyle;rounded=0;orthogonalLoop=1;jettySize=auto;html=1;fontSize=24;entryX=0.5;entryY=0;entryDx=0;entryDy=0;" parent="WIyWlLk6GJQsqaUBKTNV-1" source="fNBgP7wJLayAHlmzlizY-35" target="fNBgP7wJLayAHlmzlizY-66" edge="1">
          <mxGeometry relative="1" as="geometry">
            <mxPoint x="220.00000000000023" y="936.4285714285709" as="targetPoint" />
            <Array as="points">
              <mxPoint x="220" y="800" />
            </Array>
          </mxGeometry>
        </mxCell>
        <mxCell id="fNBgP7wJLayAHlmzlizY-75" style="edgeStyle=orthogonalEdgeStyle;rounded=0;orthogonalLoop=1;jettySize=auto;html=1;fontSize=12;" parent="WIyWlLk6GJQsqaUBKTNV-1" source="fNBgP7wJLayAHlmzlizY-35" target="fNBgP7wJLayAHlmzlizY-74" edge="1">
          <mxGeometry relative="1" as="geometry">
            <Array as="points">
              <mxPoint x="600" y="890" />
              <mxPoint x="600" y="890" />
            </Array>
          </mxGeometry>
        </mxCell>
        <mxCell id="fNBgP7wJLayAHlmzlizY-35" value="&lt;font style=&quot;font-size: 12px&quot;&gt;引述事例&lt;/font&gt;" style="shape=parallelogram;perimeter=parallelogramPerimeter;whiteSpace=wrap;html=1;fontSize=24;align=center;size=0.026850574712644175;" parent="WIyWlLk6GJQsqaUBKTNV-1" vertex="1">
          <mxGeometry x="163" y="800" width="500" height="40" as="geometry" />
        </mxCell>
        <mxCell id="fNBgP7wJLayAHlmzlizY-71" style="edgeStyle=orthogonalEdgeStyle;rounded=0;orthogonalLoop=1;jettySize=auto;html=1;exitX=0.5;exitY=1;exitDx=0;exitDy=0;entryX=0.5;entryY=0;entryDx=0;entryDy=0;fontSize=12;" parent="WIyWlLk6GJQsqaUBKTNV-1" source="fNBgP7wJLayAHlmzlizY-66" edge="1">
          <mxGeometry relative="1" as="geometry">
            <mxPoint x="219.9999999999999" y="1060" as="targetPoint" />
          </mxGeometry>
        </mxCell>
        <mxCell id="fNBgP7wJLayAHlmzlizY-66" value="&lt;span style=&quot;white-space: normal&quot;&gt;追根求源&lt;/span&gt;" style="shape=parallelogram;perimeter=parallelogramPerimeter;whiteSpace=wrap;html=1;fontSize=12;align=center;fillColor=#dae8fc;strokeColor=#6c8ebf;" parent="WIyWlLk6GJQsqaUBKTNV-1" vertex="1">
          <mxGeometry x="160" y="910" width="120" height="40" as="geometry" />
        </mxCell>
        <mxCell id="fNBgP7wJLayAHlmzlizY-76" style="edgeStyle=orthogonalEdgeStyle;rounded=0;orthogonalLoop=1;jettySize=auto;html=1;entryX=0.5;entryY=0;entryDx=0;entryDy=0;fontSize=12;" parent="WIyWlLk6GJQsqaUBKTNV-1" source="fNBgP7wJLayAHlmzlizY-72" edge="1">
          <mxGeometry relative="1" as="geometry">
            <mxPoint x="219.9999999999999" y="1060" as="targetPoint" />
            <Array as="points">
              <mxPoint x="413" y="1000" />
              <mxPoint x="220" y="1000" />
            </Array>
          </mxGeometry>
        </mxCell>
        <mxCell id="fNBgP7wJLayAHlmzlizY-72" value="&lt;span style=&quot;white-space: normal&quot;&gt;做假设分析&lt;/span&gt;" style="shape=parallelogram;perimeter=parallelogramPerimeter;whiteSpace=wrap;html=1;fontSize=12;align=center;fillColor=#ffe6cc;strokeColor=#d79b00;" parent="WIyWlLk6GJQsqaUBKTNV-1" vertex="1">
          <mxGeometry x="353" y="910" width="120" height="40" as="geometry" />
        </mxCell>
        <mxCell id="fNBgP7wJLayAHlmzlizY-73" value="" style="edgeStyle=orthogonalEdgeStyle;rounded=0;orthogonalLoop=1;jettySize=auto;html=1;fontSize=24;entryX=0.5;entryY=0;entryDx=0;entryDy=0;" parent="WIyWlLk6GJQsqaUBKTNV-1" source="fNBgP7wJLayAHlmzlizY-35" target="fNBgP7wJLayAHlmzlizY-72" edge="1">
          <mxGeometry relative="1" as="geometry">
            <mxPoint x="410.0000000000001" y="840" as="sourcePoint" />
            <mxPoint x="409.9999999999999" y="930" as="targetPoint" />
            <Array as="points" />
          </mxGeometry>
        </mxCell>
        <mxCell id="fNBgP7wJLayAHlmzlizY-77" style="edgeStyle=orthogonalEdgeStyle;rounded=0;orthogonalLoop=1;jettySize=auto;html=1;fontSize=12;" parent="WIyWlLk6GJQsqaUBKTNV-1" source="fNBgP7wJLayAHlmzlizY-74" edge="1">
          <mxGeometry relative="1" as="geometry">
            <mxPoint x="220" y="1060" as="targetPoint" />
            <Array as="points">
              <mxPoint x="600" y="1000" />
              <mxPoint x="220" y="1000" />
            </Array>
          </mxGeometry>
        </mxCell>
        <mxCell id="fNBgP7wJLayAHlmzlizY-74" value="&lt;span style=&quot;white-space: normal&quot;&gt;对比分析&lt;/span&gt;" style="shape=parallelogram;perimeter=parallelogramPerimeter;whiteSpace=wrap;html=1;fontSize=12;align=center;fillColor=#f8cecc;strokeColor=#b85450;" parent="WIyWlLk6GJQsqaUBKTNV-1" vertex="1">
          <mxGeometry x="540" y="910" width="120" height="40" as="geometry" />
        </mxCell>
        <mxCell id="fNBgP7wJLayAHlmzlizY-79" style="edgeStyle=orthogonalEdgeStyle;rounded=0;orthogonalLoop=1;jettySize=auto;html=1;exitX=0.5;exitY=1;exitDx=0;exitDy=0;fontSize=12;" parent="WIyWlLk6GJQsqaUBKTNV-1" source="fNBgP7wJLayAHlmzlizY-78" edge="1">
          <mxGeometry relative="1" as="geometry">
            <mxPoint x="220.00000000000023" y="1170" as="targetPoint" />
          </mxGeometry>
        </mxCell>
        <mxCell id="fNBgP7wJLayAHlmzlizY-78" value="扣回论题" style="shape=parallelogram;perimeter=parallelogramPerimeter;whiteSpace=wrap;html=1;fontSize=12;align=center;" parent="WIyWlLk6GJQsqaUBKTNV-1" vertex="1">
          <mxGeometry x="160" y="1060" width="120" height="40" as="geometry" />
        </mxCell>
        <mxCell id="fNBgP7wJLayAHlmzlizY-131" style="edgeStyle=orthogonalEdgeStyle;rounded=0;orthogonalLoop=1;jettySize=auto;html=1;entryX=0.5;entryY=0;entryDx=0;entryDy=0;fontSize=12;fontColor=#EA6B66;" parent="WIyWlLk6GJQsqaUBKTNV-1" source="fNBgP7wJLayAHlmzlizY-80" target="fNBgP7wJLayAHlmzlizY-85" edge="1">
          <mxGeometry relative="1" as="geometry" />
        </mxCell>
        <mxCell id="fNBgP7wJLayAHlmzlizY-80" value="&lt;span style=&quot;white-space: normal&quot;&gt;寻找解决方案，写在最后一段&lt;/span&gt;" style="shape=parallelogram;perimeter=parallelogramPerimeter;whiteSpace=wrap;html=1;fontSize=12;align=center;" parent="WIyWlLk6GJQsqaUBKTNV-1" vertex="1">
          <mxGeometry x="160" y="1170" width="120" height="60" as="geometry" />
        </mxCell>
        <mxCell id="fNBgP7wJLayAHlmzlizY-84" value="交卷" style="ellipse;whiteSpace=wrap;html=1;fontSize=12;align=center;" parent="WIyWlLk6GJQsqaUBKTNV-1" vertex="1">
          <mxGeometry x="160" y="1460" width="120" height="80" as="geometry" />
        </mxCell>
        <mxCell id="fNBgP7wJLayAHlmzlizY-117" style="edgeStyle=orthogonalEdgeStyle;rounded=0;orthogonalLoop=1;jettySize=auto;html=1;fontSize=12;" parent="WIyWlLk6GJQsqaUBKTNV-1" source="fNBgP7wJLayAHlmzlizY-85" target="fNBgP7wJLayAHlmzlizY-84" edge="1">
          <mxGeometry relative="1" as="geometry" />
        </mxCell>
        <mxCell id="fNBgP7wJLayAHlmzlizY-85" value="检查错别字" style="rounded=0;whiteSpace=wrap;html=1;fontSize=12;align=center;" parent="WIyWlLk6GJQsqaUBKTNV-1" vertex="1">
          <mxGeometry x="160" y="1310" width="120" height="60" as="geometry" />
        </mxCell>
        <mxCell id="fNBgP7wJLayAHlmzlizY-98" style="edgeStyle=orthogonalEdgeStyle;rounded=0;orthogonalLoop=1;jettySize=auto;html=1;entryX=0.5;entryY=0;entryDx=0;entryDy=0;fontSize=12;" parent="WIyWlLk6GJQsqaUBKTNV-1" source="fNBgP7wJLayAHlmzlizY-94" target="fNBgP7wJLayAHlmzlizY-97" edge="1">
          <mxGeometry relative="1" as="geometry" />
        </mxCell>
        <mxCell id="fNBgP7wJLayAHlmzlizY-99" value="认同" style="text;html=1;align=center;verticalAlign=middle;resizable=0;points=[];labelBackgroundColor=#ffffff;fontSize=12;" parent="fNBgP7wJLayAHlmzlizY-98" vertex="1" connectable="0">
          <mxGeometry x="-0.4743" y="-4" relative="1" as="geometry">
            <mxPoint as="offset" />
          </mxGeometry>
        </mxCell>
        <mxCell id="fNBgP7wJLayAHlmzlizY-102" value="" style="edgeStyle=orthogonalEdgeStyle;rounded=0;orthogonalLoop=1;jettySize=auto;html=1;fontSize=12;" parent="WIyWlLk6GJQsqaUBKTNV-1" source="fNBgP7wJLayAHlmzlizY-94" target="fNBgP7wJLayAHlmzlizY-101" edge="1">
          <mxGeometry relative="1" as="geometry" />
        </mxCell>
        <mxCell id="fNBgP7wJLayAHlmzlizY-163" value="&lt;font style=&quot;font-size: 12px&quot;&gt;否定&lt;/font&gt;" style="text;html=1;align=center;verticalAlign=middle;resizable=0;points=[];labelBackgroundColor=#ffffff;fontSize=60;fontFamily=Lucida Console;fontColor=#333333;" parent="fNBgP7wJLayAHlmzlizY-102" vertex="1" connectable="0">
          <mxGeometry x="0.0122" y="2" relative="1" as="geometry">
            <mxPoint x="-1" y="-13" as="offset" />
          </mxGeometry>
        </mxCell>
        <mxCell id="fNBgP7wJLayAHlmzlizY-94" value="认同/反对题目观点？" style="rhombus;whiteSpace=wrap;html=1;fontSize=12;align=center;" parent="WIyWlLk6GJQsqaUBKTNV-1" vertex="1">
          <mxGeometry x="365" y="420" width="150" height="50" as="geometry" />
        </mxCell>
        <mxCell id="fNBgP7wJLayAHlmzlizY-106" style="edgeStyle=orthogonalEdgeStyle;rounded=0;orthogonalLoop=1;jettySize=auto;html=1;entryX=0.5;entryY=0;entryDx=0;entryDy=0;fontSize=12;" parent="WIyWlLk6GJQsqaUBKTNV-1" source="fNBgP7wJLayAHlmzlizY-101" target="fNBgP7wJLayAHlmzlizY-103" edge="1">
          <mxGeometry relative="1" as="geometry">
            <Array as="points">
              <mxPoint x="810" y="490" />
              <mxPoint x="661" y="490" />
            </Array>
          </mxGeometry>
        </mxCell>
        <mxCell id="fNBgP7wJLayAHlmzlizY-109" value="否定前半句" style="text;html=1;align=center;verticalAlign=middle;resizable=0;points=[];labelBackgroundColor=#ffffff;fontSize=12;" parent="fNBgP7wJLayAHlmzlizY-106" vertex="1" connectable="0">
          <mxGeometry x="0.6313" y="5" relative="1" as="geometry">
            <mxPoint as="offset" />
          </mxGeometry>
        </mxCell>
        <mxCell id="fNBgP7wJLayAHlmzlizY-107" style="edgeStyle=orthogonalEdgeStyle;rounded=0;orthogonalLoop=1;jettySize=auto;html=1;entryX=0.5;entryY=0;entryDx=0;entryDy=0;fontSize=12;" parent="WIyWlLk6GJQsqaUBKTNV-1" source="fNBgP7wJLayAHlmzlizY-101" target="fNBgP7wJLayAHlmzlizY-104" edge="1">
          <mxGeometry relative="1" as="geometry">
            <Array as="points">
              <mxPoint x="810" y="540" />
              <mxPoint x="810" y="540" />
            </Array>
          </mxGeometry>
        </mxCell>
        <mxCell id="fNBgP7wJLayAHlmzlizY-110" value="否定后半句" style="text;html=1;align=center;verticalAlign=middle;resizable=0;points=[];labelBackgroundColor=#ffffff;fontSize=12;" parent="fNBgP7wJLayAHlmzlizY-107" vertex="1" connectable="0">
          <mxGeometry x="0.181" y="3" relative="1" as="geometry">
            <mxPoint as="offset" />
          </mxGeometry>
        </mxCell>
        <mxCell id="fNBgP7wJLayAHlmzlizY-108" style="edgeStyle=orthogonalEdgeStyle;rounded=0;orthogonalLoop=1;jettySize=auto;html=1;entryX=0.5;entryY=0;entryDx=0;entryDy=0;fontSize=12;" parent="WIyWlLk6GJQsqaUBKTNV-1" source="fNBgP7wJLayAHlmzlizY-101" target="fNBgP7wJLayAHlmzlizY-105" edge="1">
          <mxGeometry relative="1" as="geometry">
            <Array as="points">
              <mxPoint x="810" y="490" />
              <mxPoint x="960" y="490" />
            </Array>
          </mxGeometry>
        </mxCell>
        <mxCell id="fNBgP7wJLayAHlmzlizY-111" value="同时否定前后两半句" style="text;html=1;align=center;verticalAlign=middle;resizable=0;points=[];labelBackgroundColor=#ffffff;fontSize=12;" parent="fNBgP7wJLayAHlmzlizY-108" vertex="1" connectable="0">
          <mxGeometry x="0.6367" relative="1" as="geometry">
            <mxPoint as="offset" />
          </mxGeometry>
        </mxCell>
        <mxCell id="fNBgP7wJLayAHlmzlizY-101" value="选择否定前半句/后半句/整句" style="rhombus;whiteSpace=wrap;html=1;fontSize=12;align=center;" parent="WIyWlLk6GJQsqaUBKTNV-1" vertex="1">
          <mxGeometry x="742.5" y="420" width="135" height="50" as="geometry" />
        </mxCell>
        <mxCell id="fNBgP7wJLayAHlmzlizY-100" style="edgeStyle=orthogonalEdgeStyle;rounded=0;orthogonalLoop=1;jettySize=auto;html=1;entryX=1;entryY=0.5;entryDx=0;entryDy=0;fontSize=12;" parent="WIyWlLk6GJQsqaUBKTNV-1" source="fNBgP7wJLayAHlmzlizY-97" target="fNBgP7wJLayAHlmzlizY-26" edge="1">
          <mxGeometry relative="1" as="geometry">
            <Array as="points">
              <mxPoint x="440" y="630" />
            </Array>
          </mxGeometry>
        </mxCell>
        <mxCell id="fNBgP7wJLayAHlmzlizY-97" value="寻找证明整句话正确的例子、逻辑" style="rounded=0;whiteSpace=wrap;html=1;fontSize=12;align=center;" parent="WIyWlLk6GJQsqaUBKTNV-1" vertex="1">
          <mxGeometry x="380" y="560" width="120" height="40" as="geometry" />
        </mxCell>
        <mxCell id="fNBgP7wJLayAHlmzlizY-112" style="edgeStyle=orthogonalEdgeStyle;rounded=0;orthogonalLoop=1;jettySize=auto;html=1;entryX=1;entryY=0.5;entryDx=0;entryDy=0;fontSize=12;" parent="WIyWlLk6GJQsqaUBKTNV-1" source="fNBgP7wJLayAHlmzlizY-103" target="fNBgP7wJLayAHlmzlizY-26" edge="1">
          <mxGeometry relative="1" as="geometry">
            <Array as="points">
              <mxPoint x="661" y="630" />
            </Array>
          </mxGeometry>
        </mxCell>
        <mxCell id="fNBgP7wJLayAHlmzlizY-103" value="寻找原因不成立的理由" style="rounded=0;whiteSpace=wrap;html=1;fontSize=12;align=center;" parent="WIyWlLk6GJQsqaUBKTNV-1" vertex="1">
          <mxGeometry x="601.25" y="560" width="120" height="40" as="geometry" />
        </mxCell>
        <mxCell id="fNBgP7wJLayAHlmzlizY-113" style="edgeStyle=orthogonalEdgeStyle;rounded=0;orthogonalLoop=1;jettySize=auto;html=1;entryX=1;entryY=0.5;entryDx=0;entryDy=0;fontSize=12;" parent="WIyWlLk6GJQsqaUBKTNV-1" source="fNBgP7wJLayAHlmzlizY-104" target="fNBgP7wJLayAHlmzlizY-26" edge="1">
          <mxGeometry relative="1" as="geometry">
            <Array as="points">
              <mxPoint x="810" y="630" />
            </Array>
          </mxGeometry>
        </mxCell>
        <mxCell id="fNBgP7wJLayAHlmzlizY-104" value="寻找结果不成立的理由" style="rounded=0;whiteSpace=wrap;html=1;fontSize=12;align=center;" parent="WIyWlLk6GJQsqaUBKTNV-1" vertex="1">
          <mxGeometry x="750" y="560" width="120" height="40" as="geometry" />
        </mxCell>
        <mxCell id="fNBgP7wJLayAHlmzlizY-114" style="edgeStyle=orthogonalEdgeStyle;rounded=0;orthogonalLoop=1;jettySize=auto;html=1;entryX=1;entryY=0.5;entryDx=0;entryDy=0;fontSize=12;" parent="WIyWlLk6GJQsqaUBKTNV-1" source="fNBgP7wJLayAHlmzlizY-105" target="fNBgP7wJLayAHlmzlizY-26" edge="1">
          <mxGeometry relative="1" as="geometry">
            <Array as="points">
              <mxPoint x="959" y="630" />
            </Array>
          </mxGeometry>
        </mxCell>
        <mxCell id="fNBgP7wJLayAHlmzlizY-105" value="寻找逻辑不成立的理由" style="rounded=0;whiteSpace=wrap;html=1;fontSize=12;align=center;" parent="WIyWlLk6GJQsqaUBKTNV-1" vertex="1">
          <mxGeometry x="898.75" y="560" width="120" height="40" as="geometry" />
        </mxCell>
        <mxCell id="fNBgP7wJLayAHlmzlizY-127" value="" style="strokeWidth=2;html=1;shape=mxgraph.flowchart.annotation_2;align=left;labelPosition=right;pointerEvents=1;" parent="WIyWlLk6GJQsqaUBKTNV-1" vertex="1">
          <mxGeometry x="70" y="1180" width="50" height="40" as="geometry" />
        </mxCell>
        <mxCell id="fNBgP7wJLayAHlmzlizY-128" value="解决" style="text;html=1;strokeColor=none;fillColor=none;align=center;verticalAlign=middle;whiteSpace=wrap;rounded=0;fontStyle=1;fontSize=24;" parent="WIyWlLk6GJQsqaUBKTNV-1" vertex="1">
          <mxGeometry x="30" y="1190" width="40" height="20" as="geometry" />
        </mxCell>
        <mxCell id="fNBgP7wJLayAHlmzlizY-149" value="&lt;div class=&quot;column&quot; style=&quot;font-size: 12px ; white-space: normal&quot;&gt;&lt;p&gt;&lt;span&gt;论点:不要过分自信，因虚心听取他人意见&lt;/span&gt;&lt;br&gt;&lt;/p&gt;&lt;p&gt;三国时马谡是蜀军的一员大将，镇守街亭，把20万大军驻扎在高山上，久经沙场的老将王平劝他撤离此山，但马谡不愿听从其建议，仍然坚持己见，结果司马氏围山断水，放火烧山，蜀军不战而乱，几乎全军覆没。最后诸葛孔明挥泪斩马谡。&lt;u&gt;马谡的失败是因为他过分自信，不愿意听取别人的意见。“前事不忘，后事之师。”&lt;/u&gt;因此我们在决策、办事时不能盲目自信，要择善而从，虚心听取别人的意见。&amp;nbsp;&lt;/p&gt;&lt;br&gt;&lt;/div&gt;" style="shape=note;whiteSpace=wrap;html=1;backgroundOutline=1;darkOpacity=0.05;rounded=0;shadow=0;dashed=1;comic=0;fontFamily=Lucida Console;fontSize=60;opacity=90;align=center;fillColor=#dae8fc;strokeColor=#6c8ebf;" parent="WIyWlLk6GJQsqaUBKTNV-1" vertex="1">
          <mxGeometry x="698.5" y="1130" width="410" height="150" as="geometry" />
        </mxCell>
        <mxCell id="fNBgP7wJLayAHlmzlizY-150" value="&lt;div class=&quot;column&quot; style=&quot;font-size: 12px ; white-space: normal&quot;&gt;&lt;p&gt;论点:对人宽容，是帮助自己取得成功。&lt;br&gt;&lt;/p&gt;&lt;div class=&quot;page&quot; title=&quot;Page 1&quot; style=&quot;font-size: 60px&quot;&gt;&lt;div class=&quot;layoutArea&quot; style=&quot;font-size: 12px&quot;&gt;&lt;div class=&quot;column&quot;&gt;&lt;p&gt;在唐王朝争权中，魏征曾鼓励太子李建成杀掉李世民，李世民即位后并不怀恨在心，还重用了魏征。&lt;u&gt;如果李世民不能做到宽宏大量，量才重用，魏征又怎么能“喜逢知己之主，竭其力用”，为大唐盛世的开创立下汗马功劳?如果李世民没有广博的胸襟，唐朝又怎么出现“贞观之治”?&lt;/u&gt;&amp;nbsp;因此，对别人的宽容，能够帮助自己取得成功。&amp;nbsp;&lt;/p&gt;&lt;/div&gt;&lt;/div&gt;&lt;/div&gt;&lt;/div&gt;" style="shape=note;whiteSpace=wrap;html=1;backgroundOutline=1;darkOpacity=0.05;rounded=0;shadow=0;dashed=1;comic=0;fontFamily=Lucida Console;fontSize=60;opacity=90;align=center;fillColor=#ffe6cc;strokeColor=#d79b00;" parent="WIyWlLk6GJQsqaUBKTNV-1" vertex="1">
          <mxGeometry x="320" y="1125" width="357" height="150" as="geometry" />
        </mxCell>
        <mxCell id="fNBgP7wJLayAHlmzlizY-151" value="&lt;div class=&quot;column&quot; style=&quot;font-size: 12px ; white-space: normal&quot;&gt;&lt;p class=&quot;p1&quot; style=&quot;margin: 0px ; font-stretch: normal ; line-height: normal ; font-family: &amp;#34;pingfang sc light&amp;#34;&quot;&gt;论点&lt;span class=&quot;s1&quot; style=&quot;font-stretch: normal ; line-height: normal ; font-family: &amp;#34;helvetica neue light&amp;#34;&quot;&gt;:&lt;/span&gt;勤能补拙&lt;span class=&quot;s1&quot; style=&quot;font-stretch: normal ; line-height: normal ; font-family: &amp;#34;helvetica neue light&amp;#34;&quot;&gt;&amp;nbsp;&lt;/span&gt;&lt;/p&gt;&lt;p class=&quot;p1&quot; style=&quot;margin: 0px ; font-stretch: normal ; line-height: normal ; font-family: &amp;#34;pingfang sc light&amp;#34;&quot;&gt;&lt;br&gt;&lt;/p&gt;&lt;p class=&quot;p1&quot; style=&quot;margin: 0px ; font-stretch: normal ; line-height: normal ; font-family: &amp;#34;pingfang sc light&amp;#34;&quot;&gt;明代张溥，小时候别人读一会儿就能背下来的东西，他往往要读几十遍才能背下来。但是，他并没有灰心，每拿到一篇文章，先认真抄一遍，校正好，再大声朗读一遍，然后烧掉，&lt;span class=&quot;s1&quot; style=&quot;font-stretch: normal ; line-height: normal ; font-family: &amp;#34;helvetica neue light&amp;#34;&quot;&gt;&amp;nbsp;&lt;/span&gt;接着再抄。这样，一篇文章往往要抄六七遍。经过不断努力，后天来他逐渐变得文思敏捷，&lt;span class=&quot;s1&quot; style=&quot;font-stretch: normal ; line-height: normal ; font-family: &amp;#34;helvetica neue light&amp;#34;&quot;&gt;&amp;nbsp;&lt;/span&gt;能出又成章。&lt;span class=&quot;s1&quot; style=&quot;font-stretch: normal ; line-height: normal ; font-family: &amp;#34;helvetica neue light&amp;#34;&quot;&gt;26&amp;nbsp;&lt;/span&gt;岁写出了扬名天下的《五人墓碑记》。&lt;u&gt;相反&lt;/u&gt;，方仲永&lt;span class=&quot;s1&quot; style=&quot;font-stretch: normal ; line-height: normal ; font-family: &amp;#34;helvetica neue light&amp;#34;&quot;&gt;&amp;nbsp;5&amp;nbsp;&lt;/span&gt;岁就能够赋诗，可谓&lt;span class=&quot;s1&quot; style=&quot;font-stretch: normal ; line-height: normal ; font-family: &amp;#34;helvetica neue light&amp;#34;&quot;&gt;&amp;nbsp;&lt;/span&gt;天赋出众。凭着聪明，他的父亲带他四处作诗炫耀。仲永再也不思进取，长大后变得庸庸碌&lt;span class=&quot;s1&quot; style=&quot;font-stretch: normal ; line-height: normal ; font-family: &amp;#34;helvetica neue light&amp;#34;&quot;&gt;&amp;nbsp;&lt;/span&gt;碌，最后“泯然众人矣&lt;span class=&quot;s1&quot; style=&quot;font-stretch: normal ; line-height: normal ; font-family: &amp;#34;helvetica neue light&amp;#34;&quot;&gt;!&lt;/span&gt;”由此可见，尽管人与人之间的天资是有区别的，但是后天的勤奋能&lt;span class=&quot;s1&quot; style=&quot;font-stretch: normal ; line-height: normal ; font-family: &amp;#34;helvetica neue light&amp;#34;&quot;&gt;&amp;nbsp;&lt;/span&gt;够弥补这一差距。&lt;/p&gt;&lt;/div&gt;" style="shape=note;whiteSpace=wrap;html=1;backgroundOutline=1;darkOpacity=0.05;rounded=0;shadow=0;dashed=1;comic=0;fontFamily=Lucida Console;fontSize=60;opacity=90;align=center;fillColor=#f8cecc;strokeColor=#b85450;" parent="WIyWlLk6GJQsqaUBKTNV-1" vertex="1">
          <mxGeometry x="698.5" y="910" width="410" height="200" as="geometry" />
        </mxCell>
        <mxCell id="fNBgP7wJLayAHlmzlizY-157" value="&lt;p class=&quot;p1&quot; style=&quot;margin: 0px ; font-stretch: normal ; font-size: 12px ; line-height: normal ; font-family: &amp;#34;pingfang sc light&amp;#34; ; color: rgb(0 , 0 , 0) ; white-space: normal&quot;&gt;&lt;span class=&quot;s1&quot; style=&quot;font-stretch: normal ; line-height: normal ; font-family: &amp;#34;helvetica neue light&amp;#34;&quot;&gt;e.g. &lt;/span&gt;”广交友，无深交“&lt;span class=&quot;s1&quot; style=&quot;font-stretch: normal ; line-height: normal ; font-family: &amp;#34;helvetica neue light&amp;#34;&quot;&gt; —— &lt;/span&gt;如果交友广泛，就没办法与人深交（前后半句是因果关系）&lt;/p&gt;" style="shape=note;whiteSpace=wrap;html=1;backgroundOutline=1;darkOpacity=0.05;rounded=0;shadow=0;dashed=1;comic=0;strokeColor=#666666;fillColor=#f5f5f5;fontFamily=Lucida Console;fontSize=60;fontColor=#333333;opacity=90;" parent="WIyWlLk6GJQsqaUBKTNV-1" vertex="1">
          <mxGeometry x="541.25" y="325" width="240" height="65" as="geometry" />
        </mxCell>
        <mxCell id="fNBgP7wJLayAHlmzlizY-158" value="&lt;ul style=&quot;font-family: helvetica; font-size: 12px; white-space: normal; color: rgb(0, 0, 0);&quot;&gt;&lt;li&gt;e.g. “男儿有泪不轻弹” —— “轻”说明观点代表男性并不是不能流泪，而是在特殊（e.g. 巨大打击）情况才能&lt;/li&gt;&lt;li&gt;e.g. ”广交友，无深交“&amp;nbsp;&lt;/li&gt;&lt;ul&gt;&lt;li&gt;“广”可以使交际圈的广也可以是数量的广&lt;/li&gt;&lt;li&gt;“深”的意思？——可以是不离不弃、在关键时候帮忙 etc&lt;/li&gt;&lt;/ul&gt;&lt;li&gt;e.g. “增强旅游业的发展能使一个国家更加富有，而且能提高人们的生活质量。”&lt;/li&gt;&lt;ul&gt;&lt;li&gt;“生活质量”&lt;/li&gt;&lt;/ul&gt;&lt;/ul&gt;" style="shape=note;whiteSpace=wrap;html=1;backgroundOutline=1;darkOpacity=0.05;rounded=0;shadow=0;dashed=1;comic=0;strokeColor=#666666;fillColor=#f5f5f5;fontFamily=Lucida Console;fontSize=60;fontColor=#333333;opacity=90;align=left;" parent="WIyWlLk6GJQsqaUBKTNV-1" vertex="1">
          <mxGeometry x="320" y="160" width="460" height="150" as="geometry" />
        </mxCell>
        <mxCell id="fNBgP7wJLayAHlmzlizY-162" value="&lt;ul class=&quot;ul1&quot; style=&quot;color: rgb(0 , 0 , 0) ; font-size: medium&quot;&gt;&lt;li class=&quot;li1&quot; style=&quot;text-align: left ; margin: 0px ; font-stretch: normal ; font-size: 14px ; line-height: normal ; font-family: &amp;#34;helvetica&amp;#34;&quot;&gt;&lt;span class=&quot;s1&quot; style=&quot;font-stretch: normal ; font-size: 12px ; line-height: normal&quot;&gt;&lt;/span&gt;&lt;span class=&quot;s2&quot;&gt;基本形式 - 逻辑辩驳&lt;/span&gt;&lt;/li&gt;&lt;ul class=&quot;ul2&quot;&gt;&lt;li class=&quot;li1&quot; style=&quot;text-align: left ; margin: 0px ; font-stretch: normal ; font-size: 14px ; line-height: normal ; font-family: &amp;#34;helvetica&amp;#34;&quot;&gt;&lt;span class=&quot;s1&quot; style=&quot;font-stretch: normal ; font-size: 12px ; line-height: normal&quot;&gt;&lt;/span&gt;&lt;span class=&quot;s2&quot;&gt;需要厘清逻辑关系&lt;/span&gt;&lt;/li&gt;&lt;/ul&gt;&lt;li class=&quot;li1&quot; style=&quot;text-align: left ; margin: 0px ; font-stretch: normal ; font-size: 14px ; line-height: normal ; font-family: &amp;#34;helvetica&amp;#34;&quot;&gt;&lt;span class=&quot;s1&quot; style=&quot;font-stretch: normal ; font-size: 12px ; line-height: normal&quot;&gt;&lt;/span&gt;&lt;span class=&quot;s2&quot;&gt;卷子给题目，让考生发表立场+辩驳原因&lt;/span&gt;&lt;/li&gt;&lt;ul class=&quot;ul2&quot;&gt;&lt;li class=&quot;li1&quot; style=&quot;text-align: left ; margin: 0px ; font-stretch: normal ; font-size: 14px ; line-height: normal ; font-family: &amp;#34;helvetica&amp;#34;&quot;&gt;&lt;span class=&quot;s1&quot; style=&quot;font-stretch: normal ; font-size: 12px ; line-height: normal&quot;&gt;&lt;/span&gt;&lt;span class=&quot;s2&quot;&gt;如何看待？&lt;/span&gt;&lt;/li&gt;&lt;li class=&quot;li1&quot; style=&quot;text-align: left ; margin: 0px ; font-stretch: normal ; font-size: 14px ; line-height: normal ; font-family: &amp;#34;helvetica&amp;#34;&quot;&gt;&lt;span class=&quot;s1&quot; style=&quot;font-stretch: normal ; font-size: 12px ; line-height: normal&quot;&gt;&lt;/span&gt;&lt;span class=&quot;s2&quot;&gt;是不是同意？&lt;/span&gt;&lt;/li&gt;&lt;/ul&gt;&lt;li class=&quot;li1&quot; style=&quot;text-align: left ; margin: 0px ; font-stretch: normal ; font-size: 14px ; line-height: normal ; font-family: &amp;#34;helvetica&amp;#34;&quot;&gt;&lt;span class=&quot;s1&quot; style=&quot;font-stretch: normal ; font-size: 12px ; line-height: normal&quot;&gt;&lt;/span&gt;&lt;span class=&quot;s2&quot;&gt;2 大打分方向，总共 25分&lt;/span&gt;&lt;/li&gt;&lt;ul class=&quot;ul2&quot;&gt;&lt;li class=&quot;li1&quot; style=&quot;text-align: left ; margin: 0px ; font-stretch: normal ; font-size: 14px ; line-height: normal ; font-family: &amp;#34;helvetica&amp;#34;&quot;&gt;&lt;span class=&quot;s1&quot; style=&quot;font-stretch: normal ; font-size: 12px ; line-height: normal&quot;&gt;&lt;/span&gt;&lt;span class=&quot;s2&quot;&gt;结构+内容 13分&lt;/span&gt;&lt;/li&gt;&lt;li class=&quot;li1&quot; style=&quot;text-align: left ; margin: 0px ; font-stretch: normal ; font-size: 14px ; line-height: normal ; font-family: &amp;#34;helvetica&amp;#34;&quot;&gt;&lt;span class=&quot;s1&quot; style=&quot;font-stretch: normal ; font-size: 12px ; line-height: normal&quot;&gt;&lt;/span&gt;&lt;span class=&quot;s2&quot;&gt;语言风格12分&lt;/span&gt;&lt;/li&gt;&lt;/ul&gt;&lt;li class=&quot;li1&quot; style=&quot;text-align: left ; margin: 0px ; font-stretch: normal ; font-size: 14px ; line-height: normal ; font-family: &amp;#34;helvetica&amp;#34;&quot;&gt;&lt;span class=&quot;s1&quot; style=&quot;font-stretch: normal ; font-size: 12px ; line-height: normal&quot;&gt;&lt;/span&gt;&lt;span class=&quot;s2&quot;&gt;400-600字&lt;/span&gt;&lt;/li&gt;&lt;ul class=&quot;ul2&quot;&gt;&lt;li class=&quot;li1&quot; style=&quot;text-align: left ; margin: 0px ; font-stretch: normal ; font-size: 14px ; line-height: normal ; font-family: &amp;#34;helvetica&amp;#34;&quot;&gt;&lt;span class=&quot;s1&quot; style=&quot;font-stretch: normal ; font-size: 12px ; line-height: normal&quot;&gt;&lt;/span&gt;&lt;span class=&quot;s2&quot;&gt;超字数扣分 - 写作时标点和文字写在一个格子&lt;/span&gt;&lt;/li&gt;&lt;/ul&gt;&lt;/ul&gt;" style="text;html=1;strokeColor=none;fillColor=none;align=center;verticalAlign=middle;whiteSpace=wrap;rounded=0;shadow=0;dashed=1;comic=0;fontFamily=Lucida Console;fontSize=60;fontColor=#333333;opacity=90;" parent="WIyWlLk6GJQsqaUBKTNV-1" vertex="1">
          <mxGeometry x="790" y="200" width="300" height="155" as="geometry" />
        </mxCell>
        <mxCell id="fNBgP7wJLayAHlmzlizY-164" value="&lt;span style=&quot;color: rgb(103 , 171 , 159) ; font-weight: 700 ; text-align: center ; white-space: normal&quot;&gt;IGCSE议论文写作思路&lt;/span&gt;" style="shape=process;whiteSpace=wrap;html=1;backgroundOutline=1;rounded=0;shadow=0;dashed=1;comic=0;strokeColor=#666666;fillColor=#f5f5f5;fontFamily=Lucida Console;fontSize=60;fontColor=#333333;opacity=90;align=left;" parent="WIyWlLk6GJQsqaUBKTNV-1" vertex="1">
          <mxGeometry x="340" y="40" width="768.5" height="90" as="geometry" />
        </mxCell>
        <mxCell id="eFGLIfBqfdj7H6bwoUfd-2" value="" style="edgeStyle=orthogonalEdgeStyle;rounded=0;orthogonalLoop=1;jettySize=auto;html=1;exitX=0.5;exitY=0;exitDx=0;exitDy=0;exitPerimeter=0;dashed=1;dashPattern=1 1;endArrow=none;endFill=0;" edge="1" parent="WIyWlLk6GJQsqaUBKTNV-1" source="eFGLIfBqfdj7H6bwoUfd-0" target="eFGLIfBqfdj7H6bwoUfd-1">
          <mxGeometry relative="1" as="geometry">
            <Array as="points">
              <mxPoint x="848" y="750" />
              <mxPoint x="662" y="750" />
            </Array>
          </mxGeometry>
        </mxCell>
        <mxCell id="eFGLIfBqfdj7H6bwoUfd-4" value="" style="edgeStyle=orthogonalEdgeStyle;rounded=0;orthogonalLoop=1;jettySize=auto;html=1;dashed=1;dashPattern=1 1;endArrow=none;endFill=0;" edge="1" parent="WIyWlLk6GJQsqaUBKTNV-1" source="eFGLIfBqfdj7H6bwoUfd-0" target="eFGLIfBqfdj7H6bwoUfd-3">
          <mxGeometry relative="1" as="geometry">
            <Array as="points">
              <mxPoint x="848" y="750" />
              <mxPoint x="1047" y="750" />
            </Array>
          </mxGeometry>
        </mxCell>
        <mxCell id="eFGLIfBqfdj7H6bwoUfd-7" style="edgeStyle=orthogonalEdgeStyle;rounded=0;orthogonalLoop=1;jettySize=auto;html=1;entryX=0.442;entryY=1.079;entryDx=0;entryDy=0;entryPerimeter=0;dashed=1;dashPattern=1 1;endArrow=none;endFill=0;" edge="1" parent="WIyWlLk6GJQsqaUBKTNV-1" source="eFGLIfBqfdj7H6bwoUfd-0" target="eFGLIfBqfdj7H6bwoUfd-6">
          <mxGeometry relative="1" as="geometry" />
        </mxCell>
        <mxCell id="eFGLIfBqfdj7H6bwoUfd-0" value="&lt;p class=&quot;p1&quot; style=&quot;margin: 0px ; font-stretch: normal ; font-size: 12px ; line-height: normal ; font-family: &amp;#34;pingfang sc light&amp;#34; ; color: rgb(0 , 0 , 0) ; white-space: normal&quot;&gt;&lt;span class=&quot;s1&quot; style=&quot;font-stretch: normal ; line-height: normal ; font-family: &amp;#34;helvetica neue light&amp;#34;&quot;&gt;e.g. &lt;/span&gt;”广交友，无深交“&lt;/p&gt;" style="shape=note;whiteSpace=wrap;html=1;backgroundOutline=1;darkOpacity=0.05;rounded=0;shadow=0;dashed=1;comic=0;strokeColor=#666666;fillColor=#f5f5f5;fontFamily=Lucida Console;fontSize=60;fontColor=#333333;opacity=90;" vertex="1" parent="WIyWlLk6GJQsqaUBKTNV-1">
          <mxGeometry x="760" y="780" width="175" height="40" as="geometry" />
        </mxCell>
        <mxCell id="eFGLIfBqfdj7H6bwoUfd-3" value="&lt;p class=&quot;p1&quot; style=&quot;margin: 0px ; font-stretch: normal ; font-size: 12px ; line-height: normal ; color: rgb(0 , 0 , 0) ; white-space: normal&quot;&gt;&lt;font face=&quot;helvetica neue light&quot;&gt;交友广泛和深浅没有直接关系&lt;/font&gt;&lt;/p&gt;" style="shape=note;whiteSpace=wrap;html=1;backgroundOutline=1;darkOpacity=0.05;rounded=0;shadow=0;dashed=1;comic=0;strokeColor=#666666;fillColor=#f5f5f5;fontFamily=Lucida Console;fontSize=60;fontColor=#333333;opacity=90;" vertex="1" parent="WIyWlLk6GJQsqaUBKTNV-1">
          <mxGeometry x="960" y="660" width="175" height="40" as="geometry" />
        </mxCell>
        <mxCell id="eFGLIfBqfdj7H6bwoUfd-1" value="&lt;p class=&quot;p1&quot; style=&quot;margin: 0px ; font-stretch: normal ; font-size: 12px ; line-height: normal ; color: rgb(0 , 0 , 0) ; white-space: normal&quot;&gt;&lt;font face=&quot;helvetica neue light&quot;&gt;交友圈狭隘，才没深交&lt;/font&gt;&lt;/p&gt;" style="shape=note;whiteSpace=wrap;html=1;backgroundOutline=1;darkOpacity=0.05;rounded=0;shadow=0;dashed=1;comic=0;strokeColor=#666666;fillColor=#f5f5f5;fontFamily=Lucida Console;fontSize=60;fontColor=#333333;opacity=90;" vertex="1" parent="WIyWlLk6GJQsqaUBKTNV-1">
          <mxGeometry x="575" y="660" width="175" height="40" as="geometry" />
        </mxCell>
        <mxCell id="eFGLIfBqfdj7H6bwoUfd-6" value="&lt;p class=&quot;p1&quot; style=&quot;margin: 0px ; font-stretch: normal ; font-size: 12px ; line-height: normal ; font-family: &amp;#34;pingfang sc light&amp;#34; ; color: rgb(0 , 0 , 0) ; white-space: normal&quot;&gt;广交友，才能深交&lt;/p&gt;" style="shape=note;whiteSpace=wrap;html=1;backgroundOutline=1;darkOpacity=0.05;rounded=0;shadow=0;dashed=1;comic=0;strokeColor=#666666;fillColor=#f5f5f5;fontFamily=Lucida Console;fontSize=60;fontColor=#333333;opacity=90;" vertex="1" parent="WIyWlLk6GJQsqaUBKTNV-1">
          <mxGeometry x="770" y="660" width="175" height="40" as="geometry" />
        </mxCell>
        <mxCell id="eFGLIfBqfdj7H6bwoUfd-8" value="" style="endArrow=none;dashed=1;html=1;dashPattern=1 1;entryX=0.25;entryY=1;entryDx=0;entryDy=0;exitX=0;exitY=0;exitDx=72.5;exitDy=0;exitPerimeter=0;" edge="1" parent="WIyWlLk6GJQsqaUBKTNV-1" source="eFGLIfBqfdj7H6bwoUfd-1" target="fNBgP7wJLayAHlmzlizY-103">
          <mxGeometry width="50" height="50" relative="1" as="geometry">
            <mxPoint x="691" y="660" as="sourcePoint" />
            <mxPoint x="740" y="730" as="targetPoint" />
          </mxGeometry>
        </mxCell>
        <mxCell id="eFGLIfBqfdj7H6bwoUfd-12" value="" style="endArrow=none;dashed=1;html=1;dashPattern=1 1;entryX=0.75;entryY=1;entryDx=0;entryDy=0;" edge="1" parent="WIyWlLk6GJQsqaUBKTNV-1" source="eFGLIfBqfdj7H6bwoUfd-3" target="fNBgP7wJLayAHlmzlizY-105">
          <mxGeometry width="50" height="50" relative="1" as="geometry">
            <mxPoint x="690" y="780" as="sourcePoint" />
            <mxPoint x="740" y="730" as="targetPoint" />
          </mxGeometry>
        </mxCell>
        <mxCell id="eFGLIfBqfdj7H6bwoUfd-13" value="" style="endArrow=none;dashed=1;html=1;dashPattern=1 1;entryX=0.75;entryY=1;entryDx=0;entryDy=0;exitX=0.5;exitY=0;exitDx=0;exitDy=0;exitPerimeter=0;" edge="1" parent="WIyWlLk6GJQsqaUBKTNV-1" source="eFGLIfBqfdj7H6bwoUfd-6" target="fNBgP7wJLayAHlmzlizY-104">
          <mxGeometry width="50" height="50" relative="1" as="geometry">
            <mxPoint x="800" y="660" as="sourcePoint" />
            <mxPoint x="850" y="610" as="targetPoint" />
          </mxGeometry>
        </mxCell>
      </root>
    </mxGraphModel>
  </diagram>
</mxfile>
